    @startuml
skinparam monochrome true
skinparam packageStyle rectangle
skinparam shadowing false

'left to right direction

skinparam classAttributeIconSize 0

hide circle
hide methods

'title Domain Model

'class Platform {
'  -description
'}

class Agent {
id/email
password
}

class Owner {
}

class Property {
   area
   location
    distance_from_the_city_center
}

class Announcement {
    description
    comission
    property
  }

Owner "1" -- "1..*" Agent : selects >
Owner "1" -- "1..*" Property : owns a >
Agent "1" -- "1..*" Announcement : publishes >
Agent "1..*" -- "1" Agency : works for >
Property "1"-- "1..*"Announcement: is needed for  >
@enduml