@startuml
skinparam monochrome true
skinparam packageStyle rectangle
skinparam shadowing false

left to right direction

skinparam classAttributeIconSize 0

hide circle
hide methods

title Domain Model


class Client {
    name
    phoneNumber
}

class System {
    message
}

class Request {
    property
    client's name
    phoneNumber
    date
    time slot
}

class ListProperties{
    properties
}

Client "1" -- "0..*" Request : requests   >
Request "0..*" -- "1" System :  are received in the >
System "1" -- "1" ListProperties : has >
System "1" -- "0..*" Client : send a message >
@enduml