@startuml
skinparam monochrome true
skinparam packageStyle rectangle
skinparam shadowing false

'left to right direction

skinparam classAttributeIconSize 0

hide circle
hide methods

'title Domain Model

'class Platform {
'  -description
'}

class Agent {
    name
    vatNumber
    website
    phoneNumber
    email
}

class Owner {
    reference
    description
    informalDesc
    technicalDesc
    duration
    cost
}

class Property {
    description
}

class Employee {
    name
    email
    position
    phone
}



'Platform "1" -- "*" Organization : has registered >
'Platform "1" -- "*" Category : defines >
Agent "1" - "0..*" Employee : has >
Agent "1" - "0..*" Owner: owns >
'Task "*" -- "1" Employee: created by >
Employee "1" -- "*" Owner : creates >
'Employee "0..1" -- "1" User: acts as >

@enduml